<?xml version="1.0" standalone="no"?>
<!DOCTYPE svg PUBLIC "-//W3C//DTD SVG 20010904//EN"
 "http://www.w3.org/TR/2001/REC-SVG-20010904/DTD/svg10.dtd">
<svg version="1.0" xmlns="http://www.w3.org/2000/svg"
 width="1024.000000pt" height="1024.000000pt" viewBox="0 0 1024.000000 1024.000000"
 preserveAspectRatio="xMidYMid meet">
<metadata>
Created by potrace 1.11, written by Peter Selinger 2001-2013
</metadata>
<g transform="translate(0.000000,1024.000000) scale(0.100000,-0.100000)"
fill="#000000" stroke="none">
<path d="M3769 7885 c-23 -49 -85 -178 -137 -285 -52 -107 -114 -235 -137
-285 -24 -49 -80 -166 -125 -260 -45 -93 -106 -219 -135 -280 -29 -60 -85
-177 -126 -260 -40 -82 -73 -152 -74 -155 -1 -3 -28 -61 -62 -130 -33 -69 -93
-192 -133 -275 -39 -82 -96 -199 -125 -260 -99 -206 -197 -410 -255 -530 -54
-111 -96 -199 -260 -540 -34 -71 -94 -195 -133 -275 -39 -80 -71 -147 -72
-150 -1 -3 -26 -57 -57 -120 -31 -63 -85 -176 -120 -250 -36 -74 -96 -198
-133 -275 -37 -77 -96 -198 -130 -270 -34 -71 -97 -202 -140 -290 -87 -181
-145 -303 -145 -308 0 -2 244 -4 541 -4 l542 0 109 226 c61 124 125 258 143
296 18 39 73 153 123 255 49 102 108 223 130 270 22 47 71 150 110 230 175
364 208 432 262 545 32 66 90 188 130 270 40 83 94 195 120 250 26 55 87 181
135 280 48 99 104 216 125 260 21 44 75 157 120 250 45 94 108 224 140 290 32
66 90 188 130 270 40 83 89 186 110 230 36 76 81 169 250 520 78 162 162 336
245 510 29 61 76 157 104 215 28 57 51 109 51 115 0 7 -179 10 -539 10 l-540
0 -42 -90z"/>
<path d="M5294 7855 c-32 -66 -104 -214 -160 -330 -56 -115 -131 -271 -167
-345 -36 -74 -106 -220 -157 -325 -51 -104 -114 -235 -140 -290 -26 -55 -89
-185 -140 -290 -51 -104 -118 -244 -150 -310 -32 -66 -99 -205 -150 -310 -51
-104 -117 -242 -147 -305 -31 -63 -98 -203 -150 -310 -110 -225 -117 -241
-114 -257 1 -7 45 -102 97 -210 53 -109 120 -247 149 -308 64 -134 160 -333
250 -520 37 -77 98 -203 135 -280 68 -142 98 -205 266 -555 52 -107 98 -202
103 -210 7 -13 79 -15 550 -16 297 0 541 1 541 3 0 1 -37 78 -81 170 -45 93
-105 218 -134 278 -29 61 -86 180 -127 265 -41 85 -96 198 -121 250 -25 52
-84 176 -132 275 -48 99 -106 221 -130 270 -23 50 -77 162 -120 250 -43 88
-97 202 -121 253 l-44 93 34 72 c19 40 82 171 141 292 59 121 131 270 160 330
66 138 161 336 278 575 49 102 118 244 152 315 34 72 104 216 155 320 142 291
246 507 315 650 89 185 229 473 269 555 19 38 34 71 33 71 -1 1 -246 2 -544 3
l-541 1 -58 -120z"/>
<path d="M6652 7487 c-9 -11 -44 -84 -177 -362 -29 -60 -87 -182 -130 -270
-43 -88 -110 -229 -151 -313 l-73 -153 38 -82 c21 -45 86 -180 145 -300 58
-120 106 -220 106 -222 0 -1 47 -99 104 -216 57 -118 129 -268 161 -334 90
-187 182 -380 240 -500 29 -60 88 -184 132 -275 44 -91 106 -219 138 -285 32
-66 89 -185 128 -265 158 -328 201 -419 242 -505 23 -49 83 -173 132 -275 49
-102 118 -244 152 -316 l63 -131 544 0 543 0 -13 26 c-8 14 -27 55 -44 91 -16
36 -72 151 -122 255 -51 105 -118 244 -150 310 -32 66 -92 192 -135 280 -42
88 -101 210 -130 270 -29 61 -90 187 -135 280 -45 94 -106 220 -135 280 -29
61 -88 182 -130 270 -43 88 -101 210 -130 270 -29 61 -90 187 -135 280 -45 94
-108 224 -140 290 -127 264 -199 414 -405 840 -99 204 -194 403 -255 530 -26
55 -93 194 -149 308 -55 114 -101 212 -101 217 0 16 -17 20 -28 7z"/>
<path d="M5832 5790 c-56 -117 -96 -201 -297 -615 -43 -88 -102 -211 -131
-273 l-54 -113 66 -137 c37 -75 86 -177 109 -227 23 -49 82 -171 130 -270 48
-99 104 -216 125 -260 21 -44 81 -170 135 -280 53 -110 110 -227 125 -260 15
-33 76 -159 135 -280 58 -121 124 -259 146 -306 l40 -86 544 0 544 0 -13 26
c-8 14 -29 60 -49 101 -19 41 -70 147 -112 235 -43 88 -103 214 -135 280 -73
153 -177 367 -272 565 -42 85 -98 202 -126 260 -27 58 -91 191 -142 295 -51
105 -111 231 -135 280 -23 50 -84 176 -135 280 -51 105 -109 226 -130 270 -21
44 -80 168 -132 275 -52 107 -113 233 -135 280 l-41 84 -60 -124z"/>
</g>
</svg>
