<svg xmlns="http://www.w3.org/2000/svg" xmlns:xlink="http://www.w3.org/1999/xlink" viewBox="0 0 1366 360.87"><defs><style>.cls-1{fill:url(#linear-gradient);}</style><linearGradient id="linear-gradient" x1="683" x2="683" y2="360.87" gradientUnits="userSpaceOnUse"><stop offset="0" stop-color="#e1ebf0" stop-opacity="0.8"/><stop offset="1" stop-color="#e1ebf0" stop-opacity="0.3"/></linearGradient></defs><title>base</title><g id="Layer_2" data-name="Layer 2"><g id="Layer_4" data-name="Layer 4"><path class="cls-1" d="M1364.71,172.38l-1.34,3.26-1.75,1.34,1.18.12,2.27-2.19-2.93,7.77-4.38,3,2,.72,4-1.88-4.38,6.11-3.12,2.24-2.16-4.23-.07-1.43,3.37,2.74,1.13-.5-4.73-6.72-2.22-8.58-2.21,8.58-4.45,6.09.69.5,4-2.27-.51,1.59-3.55,7-.55.55-1.44-1-2.93-7.77,2.28,2.19,1.18-.12-1.75-1.34-1.35-3.26-2-6.51-2,6.51-.86,2.1-3.61-3.79-3.55-6.95-.06-1.43,3.36,2.74,1.14-.5-4.73-6.72-2.22-8.58-2.22,8.58-2.39,3.28-2-2.15-1.64-3.2,4.08.66,2-1.27-7.35-2-.6-1.18-.07-1.43,3.37,2.74,1.13-.5-4.13-5.87,3.67.83L1323,160l-5.59-2.11-2-1.29-1.7-6.57-1.2,4.66-1.29-.85-7.08-6.68,5.7,1,4.09,1.5,2.87-.58-4.95-1.9-3.68-2.65-4.38-6.1,4,1.87,2-.72-4.38-3-2.94-7.77,2.28,2.19,1.18-.12-1.75-1.34-1.34-3.26-2-6.51-2,6.51-1.35,3.26-1.75,1.34,1.18.12,2.28-2.19-2.93,7.77-2,1.35-2-1.37-1-2.76-.53,1.73-7.29-5-1.68-4.09,7.83,3.19.9-.38-4.4-4.23,1.75.33,1-1.07-6.64-3-.69-.67-1.87-3.74,4.08,3.21.92.08-4.93-8.57-2.51-7.08-1.8,5.86-11.38-7.76-1.68-4.09,7.83,3.19.9-.38-9-8.6L1262,92l.54-.44-1-.44L1260.45,89l4.08,3.22.92.07-4.92-8.57-.09-.24.44-.34-.69-.37L1258,76.64l-1.31,4.26-9.61-5.14-6.52-6.83,7.77,1.31,6.87,2.09,1.31-.77-11.77-10.13-5.37-7.17,9.56,4,1-.31-6.8-7.16-3.58-7-.07-1.45,3.4,2.78,1.15-.51-4.78-6.79L1237,29.17l-2.24,8.66-4.5,6.15.7.51,4-2.29-.51,1.6-3.59,7-1.35,1.34-3.4-3.27-1.88-3.74,4.09,3.22.92.07-4.93-8.57-2.51-7.08L1219.29,41l-4,6,1.14,0,3.92-2L1218,48.37l-5.21,5-5.17-3.52-1-2.46,6.28,1.16.94.38.35-.14,2.21.41,1-1.08-5.88-2.63-5.86-5.63-1.89-3.78,4.13,3.26.93.07-5-8.66-2.54-7.15-2.23,7.27-6.76-4.6-1.69-4.13,7.91,3.22.9-.38-9-8.69-1.89-3.78,4.13,3.25.93.07-5-8.66L1186.11,0l-2.53,8.25-4,6.08,1.16,0,4-2.07-2.37,3.51-9.49,9.07.82.53,9-3.18-2.13,3.47-11,7.78L1167,28.22l-3.36,7.7-.22.65-5-5.31-3.54-7-.07-1.44,3.37,2.75,1.13-.5-4.73-6.73-2.22-8.57-2.21,8.57-4.46,6.1.7.5,4-2.27-.51,1.59-3.55,7L1139.4,38l1,.67,9.47-4-5.33,7.09-11.48,10.1,1.13.7,6.81-2.07,7.68-1.3L1140.6,57l-12,6.29.91.62L1143.1,62l3,0-7.58,4.43-11.29,5.36.94.71L1139.7,71h10.64l-.12,12.88,0,.4-5.74.31-3.35,6.7,1.54,7.48-2.83,7.21-3.1,4.64v4.53h0l-1.43,2.21-1.31-.62h-2.11l-2.71,3-2.7,2.26-3.31-2.26-4.21,1.36-3.61,3-3.16,2.56-3.31-1.65-3.61.15-1.65-1.81-3.46,2-2.4,3.6-3.37,3.53-3.3.74-.32-14,8.41.3,11.79,2.91,2-1.38-3.62-2-7.6-3.45L1094,109l8.29,2.42,7.48,1.21,2-1.26-8-2.14-4.55-3.91-5.64-5.87,6.56,2.82,7.66,1.72,2.76-.28-5.58-2.11-6.16-4-7.08-6.68,5.69,1,4.09,1.5,2.88-.57-5-1.9-3.69-2.65-4.37-6.11,4,1.87,2-.72-4.37-3-2.94-7.77,2.28,2.19,1.18-.12-1.75-1.35L1090.47,70l-2-6.52-2,6.52-1.35,3.25-1.75,1.35,1.18.12,2.28-2.19-2.94,7.77-4.37,3,2,.72,4-1.87-4.37,6.11-3.69,2.65-5,1.9,2.88.57,4.09-1.5,5.69-1-7.08,6.68-5.08,3.34-1.55-.59-1.63-1.18-1-3.85L1068.2,98l-.41-.29-4.42-6.17,4.07,1.89,2-.72-4.42-3-3-7.85,2.3,2.21,1.19-.12-1.76-1.36-1.36-3.29-2-6.58-2,6.58-1.36,3.29-1.77,1.36,1.2.12,2.3-2.21-3,7.85-4.42,3,2,.72,4.08-1.89-4.43,6.17-3.72,2.68-1.65.63-1.57-4.42-1.75,5.69h0l-.31,1-8.51-8.17-1.89-3.78,4.12,3.25.94.07-5-8.66-2.54-7.15-2.54,8.25-4,6.08,1.16,0,4-2.07-2.37,3.51-9.5,9.07.83.52,9-3.17-2.13,3.47-8.42,6-2.82-4-2.24-8.67-2.24,8.67-4.5,6.15.71.51,4-2.29-.52,1.6-3.58,7-6.87,6.79,1,.68,7.82-3.3-8.16,3.91,1.11.5,5.73-1.06-2.32,3.09-7.91,7-1.58-1.52L993,131.71l4.12,3.25.93.08-5-8.66-2.54-7.15L988,127.48l-4,6.07,1.16,0,4-2.07-2.38,3.5L977.18,144l.82.52,9-3.17-2.13,3.46-14,9.92.9.3,12.68-4.18L976,159.78l-17,8.13,1.11.49,19.67-3.63-3.82,6.6-10.42,7.25-13.37-6-8.33-8.8L956.47,168l.87-.51-13.19-9-1.67-4.09,7.83,3.19.89-.38-9-8.6-1.87-3.74,4.08,3.22.93.07-4.93-8.57L938,132.51l-2.52,8.17-4,6,1.15,0,3.92-2-2.35,3.47-9.4,9,.82.52,8.88-3.14-2.11,3.43-6.19,4.39-9.46-8.14L911.39,147l9.46,4,1-.31-6.73-7.08-3.54-6.95-.07-1.44,3.37,2.75,1.13-.5-4.73-6.73L909,122.2l-2.22,8.57-4.45,6.1.7.5,4-2.27-.51,1.59L903,143.64l-6.8,6.72,1,.67,9.47-4-5.33,7.09-11.48,10.1,1.13.7,6.8-2.07,7.69-1.3-8.11,7.84-12,6.3.91.61,13.6-1.93,3,0-7.58,4.43L884,184.18l.94.71,11.53-1.48H907.1L907,195.73l-2.28,1.59,1.09.67,1.13-.19-.16,4-1.47.19-2.85.88-3.34-1.87-3.74,1.87-.88,3.15-1.44,1-2.4-1.07-8.41-8.89,12.68,4.18.88-.51-13.33-9.08-1.69-4.14,7.91,3.22.9-.38-9-8.69L878.65,178l4.12,3.26.94.07-5-8.66-2.54-7.15-2.54,8.25-4,6.07,1.16,0,4-2.07-2.37,3.51-3.85,3.67-6.76-4.6-1.69-4.13,7.91,3.22.91-.38-9-8.69L858,166.53l4.13,3.25.93.08-5-8.67L855.51,154,853,162.3l-4,6.07,1.16,0,4-2.07-2.37,3.51-5.6,5.35-2.56-2.2-5.38-7.17,9.56,4,1-.31-6.8-7.16-3.58-7-.07-1.45,3.4,2.78,1.15-.51L838,149.33l-2.24-8.66-2.24,8.66-4.5,6.15.7.51,4-2.29-.52,1.6-3.58,7-6.87,6.8,1,.67,9.56-4L828,172.93l-6.06,5.33L820,176.44l-1.89-3.78,4.12,3.25.93.08-5-8.66-2.54-7.16-2.54,8.26-.56.85-1-1.06-3.59-7-.06-1.45,3.4,2.78,1.14-.51-4.78-6.79-2.24-8.67-2.24,8.67-4.49,6.15.7.51,4-2.29-.52,1.6-3.58,7-6.39,6.32-1.77-5.75-2,6.58-1.36,3.29L786,180l1.2.12,2.3-2.22-1.95,5.17-.86-.59-2.31-6.12.63.21.45-.27.56.54,1.19-.12-1.76-1.36-1.36-3.29-2-6.58-2,6.58h0L772.59,167l-1.69-4.13,7.91,3.22.9-.38-9-8.69-1.89-3.78,4.12,3.25.94.08-5-8.66-2.54-7.16L763.79,149l-4,6.07,1.16,0,4-2.06-2.37,3.5-9.5,9.07.83.53,9-3.17-2.13,3.46-4.8,3.41-.58-2.26-.85,3.27-3.75,2.66-1.29-1-1.36-3.29-2-6.58-2,6.58-1.35,3.29-1.77,1.36,1.19.12,2.3-2.21-3,7.85-1.15.78-.2-.14-4.42-6.17,4.08,1.89,2-.72-4.42-3-3-7.85,2.3,2.21,1.2-.12-1.77-1.36-1.36-3.29-2-6.58-2,6.58-1.36,3.29-1.76,1.36,1.19.12,2.3-2.21-3,7.85-3.85,2.64L719,171.22l-1.69-4.13,7.91,3.22.9-.38-9-8.69-1.89-3.78,4.12,3.25.94.08-5-8.66L712.71,145l-2.53,8.26-2.84,4.28-.06-.14-2-6.58-2,6.58-.31.76-1-.65-3-7.86,2.3,2.22,1.19-.12-1.77-1.36-1.35-3.29-2-6.58-2,6.58L694,150.36l-.85.65,0,0-2.77-5.42-.07-1.45,3.4,2.77,1.15-.5L691,141l.36-.21-1.27-1.09-.11-.16-2.24-8.66-1.44,5.56-6.71-5.78-5.38-7.17,9.56,4,1-.31L678,120.09l-3.59-7-.07-1.45,3.4,2.78,1.15-.51-4.78-6.79-2.24-8.66-2.24,8.66-4.5,6.15.71.51,4-2.29-.52,1.6-3.58,7-6.87,6.8,1,.67,9.56-4-5.38,7.17-5.8,5.1-1.51-2.62L654.24,126l-2.54,8.25-4,6.07,1.16,0,4-2.07-2.37,3.51-9.5,9.07.83.52,9-3.17-2.13,3.46-14,9.93.91.29,12.68-4.18-8.42,8.89-8.75,4.2-1.45-1.32-5.41-1.19L621,172.59l-2.71,2.79L615,173.52v-1.86l-2.2-1.69-5.08-1.7-5.92,4.41-1,2.87-1.38.53h-7.5l-3-1.58-6.12-6.42.43-.28,6.93,1.18,6.87,2.09,1.32-.78-11.77-10.13-2.11-2.8,6,.21,11.9,3,2-1.4-3.66-2-7.68-3.49L585.33,147l8.38,2.45,7.56,1.22,2-1.28-8.09-2.15-4.59-4-5.7-5.93,6.63,2.85,7.74,1.74,2.79-.29-5.64-2.13-6.23-4.09L583,128.64l5.75,1,4.14,1.51,2.9-.58-5-1.92L587.08,126l-4.42-6.16,4.07,1.89,2-.73-4.42-3-3-7.86,2.3,2.22,1.19-.13-1.77-1.35-1.36-3.29-2-6.58-2,6.58-1.35,3.29-1.77,1.35,1.19.13,2.3-2.22-3,7.86-4.42,3,2,.73,4.07-1.89L572.38,126l-3.72,2.68-2.37.91-1.64-1.26-.08-.2.07-.05-.13-.09-1.22-3-2-6.58-1.86,6.07L551.31,119l-1.69-4.13,7.91,3.22.91-.38L549.39,109l-1.89-3.78,4.13,3.25.93.08-5-8.67-2.53-7.15L542.51,101l-4,6.07,1.15,0,4-2.07-2.37,3.51-6.65,6.36-2.5-4.89-.06-1.45,3.4,2.78,1.14-.51L531.79,104l-2.24-8.67L527.3,104l-4.49,6.15.7.51,4-2.29-.51,1.6-3.59,7-5.4,5.34-10.91-5.84-6.52-6.84,7.77,1.32,6.87,2.09,1.31-.77-11.77-10.13-5.38-7.17L509,99l1-.32-6.8-7.15-3.59-7L499.48,83l3.4,2.78L504,85.3l-4.77-6.79L497,69.84l-2.24,8.67-4.49,6.15.7.51,4-2.29-.51,1.6-3.59,7L484,98.29l1.05.68,9.56-4-5.38,7.17L483.63,107l-1.56-6-2.24,8.67-1.43,2-.77.67.19.11-2.49,3.41.7.51,4-2.29-.52,1.6-3.39,6.63-3.06,1.61.92.62h.1l-5,5,1,.67,9.56-4-3,4-5,2.37,1,.71,1.9-.24-.26.35-11.6,10.2,1.15.7,6.87-2.09,7.77-1.31-8.2,7.92-2.09,1.09L462,145.44l-1.87-2.93-.47-3-.54-1.62,1-1.32V133.6l-2.1-1.79-.85-4.72-1.78-2.34-2.32.87-3,2.4h-6.59l-3.18-3.64-4.49-2.69h-3.33l-2.48.21-2.66-.42-2.17-1-4.09-.32L416.61,118,415,115.21l-1.45-1.6-2.8-2.25-2.33.64-2.09-.56-2.57,1.29-5,1.52-3.85-2h-4.09l-2.73-1.36-4.1-3.45-1.44-1.13H381.2l-1.44.65-3.21-1L375,104.06l-2.32-.81-1.53-.48-1.44-2.14-2.57-.67-1.85,1.34-3-1.6-5.4.35-2.72-.32-4.4.69-4.17,1.4-2-.88-3.74-.07-4.57-.68L333.56,99l-4-4.64,4.53.64-5.43-10.87,4.35.31-4.85-5.77,3.23.68L329,75l-1.38-2.56-2,2-1.92-3-3.58-5.55,3.77,1,3.27-.25-3.73-4.77L319,55.76l4.07,1.89,2-.73-4.42-3-3-7.86,2.3,2.22,1.19-.13-1.77-1.35-1.35-3.29-2-6.58-2,6.58-1.36,3.29-1.77,1.35,1.19.13L314.41,46l-3,7.86-4.42,3,2,.73,4.08-1.89-4.43,6.16L305,64.6l-.4.15-5.93-5.7-1.89-3.78,4.12,3.25.93.08-5-8.67-2.53-7.15L291.76,51l-4,6.07,1.15,0,4-2.07-2.37,3.51L281,67.59l.82.53,9-3.18-2.13,3.47-5.26,3.74-1.1-.75-3-7.85,2.3,2.21,1.19-.12L281,64.28,279.69,61l-2-6.58-2,6.58-1.36,3.29-1.77,1.36,1.19.12L276,63.55l-3,7.85-1.43,1-1.2-1.26.44-.15-2.47-2.6.2,0-.81-.62-1.16-1.22-1.15-2.81-1.22-4,2.23,1.82,1.14-.51-4.78-6.79-2.24-8.67L259.72,49,258,42.15l-2.24,8.66L251.22,57l.7.51,4-2.29-.52,1.6-3.58,7-4.1,4L246,62.29l-2,6.58-1.35,3.29-1.77,1.36,1.19.12,2.3-2.21-1.47,3.9-3.66-2.63-4.42-6.16,4.07,1.89,2-.73-4.42-3-3-7.86,2.3,2.22,1.2-.12-1.77-1.36-1.36-3.29-2-6.58-2,6.58-1.36,3.29-1.77,1.36L228,59l2.3-2.22-3,7.86-4.42,3,2,.73L229,66.54l-4.42,6.16L223,73.81l-1.83-5.18-2.31,7.5,0,0-7.62-7.33L209.32,65l4.12,3.25.93.08-5-8.66-2.54-7.16-2.54,8.26-4,6.07,1.16,0,4-2.07L203,68.29l-9.49,9.07.83.53,9-3.17-2.13,3.46-14,9.92.9.3L192,87.11,191,91.18l-3.52-2.53L183,82.48l4.08,1.89,2-.72-4.42-3-3-7.85,2.3,2.21,1.2-.12-1.77-1.36-1.36-3.29-2-6.58-2,6.58-1.36,3.29L175,74.86l1.19.12,2.3-2.21-3,7.85-4.42,3,2,.72,4.07-1.89-4.42,6.17-.1.07-.85-.9-1-1.95-1.89-5.32-.31,1-.39-.77-.06-1.45,3.4,2.78,1.14-.51-4.78-6.79-2.24-8.67-2.24,8.67L159,81l.7.51,4-2.29-.52,1.6-3.58,7-5,5-3.6-2.46-3-7.86,2.3,2.22,1.19-.13-1.76-1.35L148.32,80l-2-6.58-2,6.58-1.36,3.29-1.77,1.35,1.2.13,2.3-2.22-1.52,4-6.92-6.65L135,77.48l2.31,1,1.12.88.93.08-.07-.13.65.27,1-.31-4.15-4.37-2.37-4.13-2-5.52,1.43,1.17,1.15-.51-4.78-6.79L128,50.44l-2.24,8.66-4.5,6.16.7.51,4-2.3-.51,1.61-3.59,7L115,78.89l1,.67,9.56-4-5.38,7.17-11.6,10.2,1.15.7,6.87-2.09,7.76-1.31-1.2,1.16-6.84,4.86-.57-1.59L115,97.17l-2.78,2,.9.29,1.32-.43v0L109,101.9l-6-5.73-1.89-3.78,4.12,3.25.94.07-5-8.66L98.7,79.9l-2.54,8.25-4,6.08,1.16,0,4-2.07-2.37,3.51L86.11,104l-.59-.63-3.59-7-.06-1.44,3.4,2.77,1.15-.51-4.78-6.79L79.4,81.75l-2.24,8.66-.2.26L69.29,83.3,67.4,79.52l4.13,3.25.93.08-5-8.66L65,67l-2.54,8.25-4,6.07,1.15,0,4-2.07-2.37,3.5-4,3.83-5.38-5.66-3.58-7-.07-1.45,3.4,2.78,1.15-.51L47.86,68l-2.24-8.67L43.38,68l-4.5,6.15.7.51,4-2.29-.52,1.6-3.58,7-4.85,4.8-2.16-2.08L30.6,79.89l4.12,3.25.94.07-5-8.66L28.14,67.4,25.6,75.65l-4,6.07,1.16,0,4-2.07-2.37,3.51-9.5,9.07.83.52,9-3.17L22.5,93l-8.75,6.21-2.8-4L8.73,86.68,6.52,95.25l-4.45,6.1.69.5,4-2.27-.51,1.59L0,114.21V360.87H1366V168.17ZM11.18,99.73l.87.71-.81.58Zm3.17,7.52-2.46-4.82,1.85-.61.81.66,1.13-.5-.45-.65,6.88-2.27Zm19.9-14-1.53-3.76,2.66,1.09-1.09,2.63Zm1.37.24-.62.54-.35-.24L36,92.51Zm.8-6.07-.14-.13.2-.08Zm3,2-.93-3,4.71-2Zm8.56-5L56,87.73l-3.16,3ZM59.3,92.66l-2.53,1.8-3-2.56,7.63-2.7Zm11.91.63-1.69-4.14,6.59,2.69L73.78,95Zm5.65,3.09-.29.56L75.22,96l2.15-1.23ZM86,110.54l-2.16-1-2-2.73,5.9,2.49Zm7.06-5-3.3,2.34L87,105l8.19-2.9ZM103.28,102l3.1,1.26-2.13,1.12Zm6.79,5.65-1.68.81L105,106.15l-.61-1.48.65.43,4.34-.61,1.84.74.7-.29Zm1.93-2.9-.6-.58,1.08-.15Zm19.09-38.63-.54-1.06-.07-1.45,1.1.9Zm8.68,31.1-1.87-2,2.66.87Zm2.74-9-.09.23-.6-.51ZM142.8,93l-.48-.32.38-.18.37.11Zm9.36,10.46-2.57-2.43.56.1,1.26,1,1.14-.51-.08-.11,1.59.27Zm5.77-5.06-1.9,1.66-2.38-1.71-4.42-6.16,4,1.86-.54.53,1,.68,9.56-4Zm14.65-3.09-1.21-2.43,2.06,1.63Zm3.36-3.18-.56-.59,1.45-.25Zm14.39,1.54-.45.62-2.19,1.05-4.29-4.05,5.75,1,1.41.52Zm3.85-2.46L193,86.79l7.8-2.57Zm22.71-14.35-1.06.41,2.24.45-2,3-2.92-2-1.69-4.13Zm-1.08,9-.56.37-.34.13-2-2.13,3.43,1.13Zm2.79-3.32-.9-.61,2-1.06Zm7.15,2.58-.23-.21-.13-.26,1.38-.59Zm-.46-6.58-1.35-2.35,4.68-.8ZM238,94.12l-.48-.42.82.24Zm1.33-7.7L237,84.05l2.06.88.63.39.15,0,.2.08Zm2.57-4.71h0Zm-.48-2.43-1.21.83-5-4.73,5.75,1,1.38.51Zm7-6-.69-1.84L249,72.67Zm1.82,1.14-.82.72-.23-.64,1.45-.61Zm-.74-2.21,0,0-.81-2,5.06-2.14Zm19.69,14.86L268,86l2,.34Zm1.65-8.28-2-1.68,1.62.75,1.34-.48Zm1.36-1.9-4.08-2.78-.58-1.55,2.4,1-1.25.86,2,.73,1.42-.66.47.2,1-.32-.36-.38,1.58-.73ZM281,82.13l0,0H281Zm0-8.3-.41-.57.74.34Zm3.38,4.71-1.64-2.28,5.51-1.81Zm16.16-3.86-.22-.23.38.12Zm4.66,4.52-.21.18-2.67-2.82,1.95-.44.49-.21,2.74.9Zm4.34,4.5-.69-.31,1.59-.47ZM309.28,75l-.9-.61,2.53-1.09Zm-3.66-3.62-.84.55L300.56,69l-1.68-4.13,2.58,1-1.48.57,2.91.58.73-.27,3.16,1.29.91-.38L305.88,66l1.14-.41,5.75-1Zm16.46,11.94-.42-.37.59.18Zm1-8.06-1.89-2,2.9,1.24Zm3.33,3.47-.12-.12.35-.12Zm148.37,75.66-.91-.63,2,0Zm9.76-28.14-.08-.11.15.06Zm1.68,15.15-.57-.59,1.05.17Zm-.77-24.06-.84-1.66-.07-1.45,2.24,1.83Zm-.18-6.27.38-.12,7.71-1.31h0L488,114.88Zm7.52,23.65-.6.61-.28-.24Zm-4.15-3Zm-.45-9-.06-.11h2.64l-1.72,1Zm1.58,22.42,2.55-.75-1.79,1.55Zm4.78,9.79-.09,2.28-3.16-2.25Zm-.49,8h.71l1.05.14,0,.62Zm6.16-8.2h.25l1.4.31-.39.36-1.22.81Zm.22,9.08v-.15l.16,0Zm-.09-3.55V160l4.27-1.83.58.43.31,0-2.63,2.74Zm3.18-15.84,1.78.52-.45.64Zm1.86,23.37-.74-.32,1.66-.48Zm1.91-29.83-.71.48-3.53-3.67,4.68,2Zm-.1-6.2h.15l-.08.06Zm1.33,8.7-.28-.29.74-.35Zm.53-7.15-.71-.46-.57-.55.18,0,.59-.56h1.09Zm1.14-6.75-.23-.08-5.11-3.63-.85-1.18,2.26-.14,5.12,1.14Zm3.73,1-1.42-4.63,4.06.91,1,.66.67-.29,1.74.39.89-.7-.84-.44,7.1-3-5.38,7.16-3.29,2.9-4.09-1.83Zm11.12,8.45-5.71,2.74-2.94-1.11-.22-.58,2-.61L526,135Zm.39,21.2-.17.14-.21-.14ZM523.31,148l-.62.36-.51-.37Zm-4-6.51L517.77,143l-.45.24-1.13-1.58,1.93-.36.79.37Zm-3.14-9-1.23,1.09-.5-1.31Zm-.16,7.77-.57.27-.57-.8Zm-.36,8.39,5.09.87-2.79,1.63-2.6-2.46Zm5.54,12.14-.56.15-2.85-3,.72-.13,4.07,1.75Zm6.38,2.75-2.14,1.85-2.65-2.21-.16-.18h0l4.95-1.44ZM534.21,122l-.68.49-1.59-2.13,2.51,1.06Zm1.61-4.93-.14-.14.2-.08Zm2.83,7.67-.09-.23.41-.14h0Zm.75-6.42-1.35,1-.88-2.88,4.36-1.55ZM548,162.83l0-.57.49.14Zm4.64-4.38-1.5,1.56-2.4-2.06Zm-.33-2,2.74-1.18.53.12-1.69,1.77ZM551.56,168l-1.62-.74-1-.86,6.73-2Zm5-28.22-.77-1.32.29-.13,1.34.24Zm1.49-8-7-7.36,7.43,2.45-.6,1.46-1.77,1.36,1.19.13,2.3-2.22Zm5.19-3.36.52.17.12-.07,1.35,1.3.64-.07-1.86.71ZM565,146.56l-.47-.44.83.14Zm6.76,1.08,1.09.4-3.28,2.83-2.1-2Zm-.28-9,3.08-1.32-1.81,1.89Zm-2.62,4.61-.25.21h0l-2.12-3,.56-.12,3.9.72Zm-1.8,32.34-.05,0-.26-.75,1,0Zm2-18h.75l2.85.48-1.38,1.84Zm4,12.23-1.71-1.48,3.92-.66Zm-3.78-34.41-1.76,1.15-1.65-1.13-1.8-4.76,2.47.49,4.13-1.51,5.76-1Zm71.44,41.13-.75-.44h-3.12l-3-2.71,9.72-1.8Zm16.89-36.13,1-.32,2.15,1.7.94.07-1.33-2.31.08,0,7.77-1.31-7,6.72-2.73-2.63Zm2.88,11.89-.32-.79,2.41-.34,3,0L662,153.29Zm9.08,26.48-.9-.59-3.82-6.6,4.63.85-1.09,1,1.15.7.21-.07Zm.26-11.66-1.16-.52-6-6.31h5.38l1.81.6Zm13.36-27.59,1.95.59-3.42,4.69-6.29-6.59Zm-.45,10.9-1.1,2.17-.1.09-3.44-2.44,3-.18Zm-9,11h0l0,0v-1.07h8.4L680,163.18l-6.14,5.4Zm.34,18.2-.24-6.11v-.22l6.41,1.18L676,178.6Zm5,5.5-1.89-1.25,1.3-.19,3,0Zm3.09-12.46-2.59-1.15,4.59-.78Zm3-27.05-.49,1-1.8-1,2.81-1.6Zm6.16,25.15,0,0h0Zm1.35-13.23-1,.67-1.6-2.14,2.7,1.14Zm1.59,2-.1,0,.19-.09Zm.06-6.38-.12-.13.16,0Zm.45-1.18-1-.52,1.84-1.78Zm6.62,9.07-.87-1.23.1,0-.34-.36,1.74.81-.21.48Zm1.15,1.59-.72-1,1.05-1,.36.17Zm5-.68-.75-2,1.4,1.34Zm1.24-1.19-.09.08-.17-.13-.71-1.71,3.34-1.74Zm9.85,15.93,7.45,2.45-.81,1.13-1.94,1.39Zm6.57,17.29-.64-1.11,2.92-1.26Zm1.61-8.65-1.59-1.68,4.11-.7Zm.69-8.17-1.78-1.21,4-1.85Zm12,9.19L736,182.9l5.39.92Zm3-4.23-.35-.25.8-.38Zm5-10.34,2.3,2.21h0l-1.18.84Zm1.4,9.89-.12-.18.19.09Zm4-5.43-2.43,3.32L749.31,176l4.14-1.36Zm4.3-.69-.51-2,3.44-1.13Zm20,11.44-.38-.66.75.14Zm1.42-7.78-6.39-6.75,6.69,2.2-.32.77L777,176.74l1.2.12,2-1.89.19.06Zm18,12.14-1.13-1.57,1,.19.74-.76.8.37.61-.22Zm2.95-2.86-2-1.4,4.23-.71Zm-2-9.61-3.4,3-1.47-3.89,2.3,2.22,1.2-.12-1.77-1.36-1.29-3.13.24.16,9.56-4Zm11.46,7.61-.11-.11.21,0Zm-1.31-14.78,2.48,1-.79,1.2Zm4,4.25-.49.47-1.42-1.9h.33l1.89-1,1,.43Zm38.51,2.92-1.69-1.46,3.3-1.16Zm11.16,6.88,4.56,1.5-1.65,1.58Zm5.24,15-.65-1.13,1.46.27Zm3.77-9.61-2.33,1.66-2.52-2.65,4.44-1.57,1.65.54Zm2.09-3.4,0,0,.08,0Zm14.41,23.72-.23-.4.82.15Zm23.89-28h10.65l2.29.29-.24.42L911,192.92Zm4.27-9.94,3-.18,2.82.62-3.08,1.48Zm7.14,5.06,5.08-.94-1.53,2.63-3.13-1.39Zm-5.91,20.58-1.32-.71-3.88,2.89-.16-4.19L928,194.26h0Zm8.37-27.69-5.78-3.1-6.46-6.76,7.69,1.3,3.56,1.08-5.29,3.76.89.29L932,163.86Zm31.5,15.39-4.06-2.69-3.78-6.53,14.73,2.72-6.3,4.39,1.1.67,10.5-1.76Zm38.76-45.47,4.31,1.76-1.74,1.22,1.09.67,2.53-.43-.94.9-2,1.07-1.54-1.05Zm1.87,10,.65-.09,1.89.63-1.21.86Zm2.34,2.47,2.21-.73-1.87,1.09ZM1003,168l-1.74-3,.46-.09,2.77.51Zm-1.63-26.22-2.42-2.33,1.83-.55,6.23-1.05ZM1014.57,111l.86.7-.8.57ZM1019,127.1l-.73-1.25-.34-1,.88-.16,1.27.53Zm3.74,17.57-.32-.16.61-.12Zm-5.06-26.26-2.38-4.66,1.9-.62.75.62,1.15-.51-.42-.6,6.49-2.13Zm16.59,25.8,0-.49.24.05Zm5.69,33.1L1038,176h2.85Zm.57-63.32-.45-.48.84.09h0Zm-1.11-1.17-2.18-2.31,4.43,1.46Zm2.14-4.95-4.09-2.78L1035.8,101l7.91,3.21.11,0-.21.67Zm2.56,1.75-.45-.31,1-.53Zm4.11-7.14,3.16-1.16,5.75-1-6.75,6.36-1.72-3Zm7,6.52-2.23,2.33-.63-1.1Zm-4.8,3.82-.72-1.44,1.16-.5,1.46,1.15-1.31,1.36Zm.66,6.91,1.27-.37,1.09.44-1.72,1.49Zm1.31,39.88-.11-.11.21,0Zm3.44-27.46-2.76-2.92,2.07,0,2.9,1v0Zm7,5.21,0-1.88,2.4-.4Zm3.44-27.53-.75-.78h0l.86.37Zm.45-6.57-3.1-2.92,3.69.63Zm3.71-1.55.63.23-.52.2Zm.49,1.9,5.79-1.3,6.56-2.82-5.64,5.87-3.52,3-3.1-4.41Zm6.07,7.56-.46-.29,6.28-1.84-3.48,3Zm1,2-2.86,2.48-.76.34-2.09-4.11ZM1074.27,137l-1.8-1.89,5.85,1Zm12.27-2.74-1.72.38-3.23-2.78,1.56.38,2-1.39-3.67-2-5.86-2.67-3.85-5.13.64-.16,8.44,3.56,1-.32-2-2.16,2.24.36,2-1.28-5.64-1.5,7.82-.07.44,14.16Zm69.27-85,3.07.51-.42.56,1.44-.38,2.18.37-2.42,3Zm5.87-5.94,2.67-.71L1163,44.35Zm10,8.9-.71.49-.26-.31.91-.54-1.74-1.5,2.82.1Zm-7.57,3L1163,56.31l-.68-.36Zm8.85-5.19-1.89-3.57,4.44-.82Zm-4.21-8,0-.08h.21Zm-5.88-3.83-1.58,4.75L1160,41.75l-5.32-7.09Zm9.7,1.48-2.31-4.7,9.84-3.24Zm19.6-7.94,5.58,1.83-1.58,2.39Zm5.19,14.91L1197,46l.82-.3h0Zm1-8.39-1-1,2.58-1.35Zm9.09,17.05,2.54.84L1209,57Zm8.81,2.92L1213,60.41l-2-1.33-1.26-1.33,2.52-.89,3.92,1.29Zm1.07-1.76-1.27-.86,2.3-.81Zm9.22-1.28-.18-.44.45.18Zm3.62,5.1L1228,58.77l-.61-1.47,2.63-1.11,2.39,1Zm3.77-5-.06-.18-.13.43-.33.44-.8-.77,2-.85Zm5.49,45.37,8.29,2.42,2.75.44-4.24,3Zm5-3.91,4.46.75-1.72,1.65-2.52-2.17Zm3.39,15.87-1.46-1,2,.49Zm3.33-3.51-.9-.41L1252,108Zm1.53-7.29-3.48-.93-.25-.21,5.67-2Zm1.64-9.5L1252.43,94l-2.1-.8L1247.06,91h2.62l5,.64Zm1.26-7.41-1.85,2.8-2.77-1.24-2.5-1.77,1.37-.28-3.85-1.47L1243.24,81l3-.18,9.82,2.18Zm1,4.07-.09,0,.18-.09Zm18.71,22.8-.31,1-2.66,4L1264,108Zm-5.46,12.13-1.21-2.09,2.85.52Zm2.94,4.68-.36-.24-.59-1,2.19-.78ZM1275,118l-.92-.41,1.85-1Zm14.56,21.7-5.37-3.56,5.87,1.94Zm8,7.51,0-.07.13,0Zm-2.62-4.56-1-1.83-.25-.7.33.12,1.1-.51.81.27.87-.51-.47-.32,1.73-.8Zm14.31,25-2.8-2.42,3.8,1.11-.76,1.47Zm1.21,8.34-.74-.33,1,0Zm1-17.45-1.2,1.63-4.32-4.5,5.63,2.42Zm12.52,17.32-.64-.67,1-.6Zm10.73,18.31-.63-.54L1333,192l.14-.08-.59-.52-3.66-4.88,5.7,2.41-.63.48,1.18.12.27-.26,1.1.47Zm2.34-6.2-.19-.21.43-.41Zm5.69,10.29-.92-1.29,1.52.7Zm16.42-1-1.56-1.65-.57-1.1.63-.23,5.7-1Z"/></g></g></svg>