<svg xmlns="http://www.w3.org/2000/svg" xmlns:xlink="http://www.w3.org/1999/xlink" viewBox="0 0 1366 340"><defs><style>.cls-1{fill:url(#linear-gradient);}</style><linearGradient id="linear-gradient" x1="683" x2="683" y2="340" gradientUnits="userSpaceOnUse"><stop offset="0" stop-color="#d9e4e8"/><stop offset="1" stop-color="#eef9ff" stop-opacity="0"/></linearGradient></defs><title>px_4</title><g id="Layer_2" data-name="Layer 2"><g id="Layer_1-2" data-name="Layer 1"><path class="cls-1" d="M1244.3,110.57h0l-12.45-5.85-15.38-3.67-15.38,3.67h-9.52l-11.71-5.86h-9.52l4.1,6.09-1.84,2.56-3.55.76-10.13-.34-2.81-.78-4.58-3.3-5.14.18-7.69,2.75-2.4.41-4-.13v-6l-5.31-.92h-7.15l-5.13-5h-8.43l-4.58-.73-8.44-1.28v-2l-9.53-2.38-4-.73-12.28-7h-12.28L1041,76.36v-3.3l20.16,2.2L1048,63.53,1063.19,69l11.36,3.3,15.21,7.15,16.68,2,7.33,5,9.72,5.86,15.57-.92,11.73,3.12,9.17,4.58,10.38-.22-12.45-2.2-14.65-5.86-13.91-8L1119.08,82l-10.25-1.88L1092,76.89l-10.25-7.32-17.57-8.06-11-5.12-14.64-10.26h-8.79l-7.32-5.85L1012.9,33,996.79,20.5l-9.52-8-9.52-4.4L964.57,6,950.78,0H939.67L926.49,3.66,916.24,0,898.66,10.25h-11l-7.32,5.13L867.91,22.7l-11,5.13-8.78,9.52L835.69,47.6l-8.79,8H814.45l-11.71,6.59L791,67.37,777.11,74l-11,4.39-16.84,7.33-16.84,6.59-13.91,8.78-8.79-3.66h-27.1l-10.25,3.66h-18.3l-16.85,3.67c-77.93,2.69-154.28,28.79-222.89,31.15C113.71,146.23,0,135.87,0,135.87V340H1366V122.21S1324.61,111.8,1244.3,110.57Zm-231.15-73.2,1.47,3.43h3.66l-2.93,3.85v4.4l2.2,2.93,3.12,3.31,5.31,4.39-4-2h-2.75l-4,1.28-.73,5.5h6.23l5.5,3.85,6.41-.73.92,3.11-9.72-.18h-4.58l3.48,4.77-7-2.39-5.68-2.2,2-3.84-2.2-9.9.92-4.22-2-1.65,1.84-3.85-2.75-5.49ZM997.87,73.31h5l7.84,4,8.82,6,4.29,6,8.94.37,7.1,4.9,5.63,3.55-7.22,2-3.43,2.7-1.34,1.44-14.93-.35-2-2.44-.61-6.12-4.53.85-6.13,2.45-6.86-6.49-6.61-5.51-8.45-1.35-7.59-3.18-9.19,1.22-6.49.86-4.53-5,3.8-4.53,1.83-2.33,5,1.84,5.39-2.33,7.35-6h9.31l4,3.18ZM941.4,5.16l8.49,3.51,16.6,3.45,11.26-2.2,3.35,1.41L980,15.14,977.4,18.8,973,20.5l3.4,3L991,37.37l-5-3.14-8.11-2.62-5.49-3.4-5.23-5.49-1.83-3.4h-6.54l-6-3.92L946,11l-5.24-1.31-3.13-6Zm-27.89,13,4.3-3.76H923l1.53-2.78,3.76-3.95L934,5V9.42l-4.57,2.87L927.31,16l-1.43,1.13,1.17,1.54-2.34,1,3.59,1.16v2.51l-2.87,1.08-1.52-.63-.9-2-1.43-1.26h-3.41l-5.83.36Zm.75,10.22h3.44l2.37,2.73,2.49,3.21v3.09h4l.95,2.36v4.51L930,45.55v3.68l3.44,1.66-1.42.59-4.87.48-1.78,4.74-2.22-5.93.68-3.32-4.39-3.68-5.34-1.25h-3.68l-1-5.15,1.19-3.92L908,29.53ZM864.93,70.18l3.26-4.34h13l4.34,2.53-.18,6.16,2.9,2.89L893,83.21l-11.23-2-7.24-4.52-6.34-1.27-3.26-1.09Zm-39.43,13L831,88l9.31-.89,4.43-.66,4.88,4.88,2,8.2-.57,2.17h-1.21l-2.65-7.93-4.87-3.32-6.65-1.55h-6.65l-3.55-2.44Z"/></g></g></svg>